# xmcd
#
# Track frame offsets: 
#        150
#        12868
#        25580
#        41288
#        54953
#        63940
#        79003
#        96108
#        110783
#        121358
#        138413
#        149578
#        161848
#        173225
#        184868
#        197708
#        208093
#        219028
#        230493
#        243850
#
# Disc length: 3435 seconds
#
# Revision: 0
# Processed by: cddbd v1.5.2PL0 Copyright (c) Steve Scherf et al.
# Submitted via: ExactAudioCopy v0.99pb5
#
DISCID=110d6914
DTITLE=B.B. King - The Best Of  volume One (digitally remastered)
DYEAR=1986
DGENRE=Blues
TTITLE0=You Upset Me Baby
TTITLE1=Everyday
TTITLE2=Five Long Years
TTITLE3=Sweet Little Angel
TTITLE4=Beautician Blues
TTITLE5=Dust My Broom
TTITLE6=Three O'Clock Blues
TTITLE7=Ain't That Just Like A Woman
TTITLE8=I'm King
TTITLE9=Sweet Sixteen (part 1)
TTITLE10=Sweet Sixteen (part 2)
TTITLE11=Whole Lot OF Lovin'
TTITLE12=Mean Ol' Frisco
TTITLE13=Please Accept My Love
TTITLE14=Going Slow Down
TTITLE15=Blues For Me
TTITLE16=You Don't Know
TTITLE17=Early Every Morning
TTITLE18=Blues At Sunrise
TTITLE19=Please Love Me
EXTD=
EXTT0=
EXTT1=
EXTT2=
EXTT3=
EXTT4=
EXTT5=
EXTT6=
EXTT7=
EXTT8=
EXTT9=
EXTT10=
EXTT11=
EXTT12=
EXTT13=
EXTT14=
EXTT15=
EXTT16=
EXTT17=
EXTT18=
EXTT19=
PLAYORDER=
